<?xml version="1.0" standalone="no"?>
<!DOCTYPE svg PUBLIC "-//W3C//DTD SVG 20010904//EN"
 "http://www.w3.org/TR/2001/REC-SVG-20010904/DTD/svg10.dtd">
<svg version="1.0" xmlns="http://www.w3.org/2000/svg"
 width="1080.000000pt" height="1080.000000pt" viewBox="0 0 1080.000000 1080.000000"
 preserveAspectRatio="xMidYMid meet">
<metadata>
Created by potrace 1.14, written by Peter Selinger 2001-2017
</metadata>
<g transform="translate(0.000000,1080.000000) scale(0.100000,-0.100000)"
fill="#000000" stroke="none">
<path d="M3295 10650 c-3 -5 -4 -10 -1 -10 3 0 -2 -8 -11 -18 -10 -11 -21 -17
-25 -15 -5 2 -8 -5 -8 -16 0 -12 -7 -21 -15 -21 -8 0 -15 -6 -15 -12 0 -9 -4
-8 -10 2 -6 10 -10 11 -10 3 0 -7 -7 -13 -15 -13 -8 0 -15 -6 -15 -12 0 -9 -4
-8 -10 2 -8 12 -10 11 -10 -7 0 -13 -5 -23 -11 -23 -5 0 -8 -4 -4 -10 3 -5 11
-7 18 -5 12 5 57 -55 57 -75 0 -5 5 -10 11 -10 6 0 8 -9 4 -20 -5 -15 -3 -18
9 -14 11 4 14 -2 14 -28 -1 -59 0 -62 17 -48 12 10 15 10 15 0 0 -10 3 -10 15
0 12 10 15 9 15 -4 0 -10 5 -14 10 -11 6 3 10 -2 10 -12 0 -15 2 -16 10 -3 5
8 10 10 10 3 0 -6 8 -10 18 -9 21 3 53 -15 46 -26 -5 -7 3 -10 22 -7 3 0 14
-10 25 -22 12 -15 19 -17 19 -8 0 12 2 12 9 -1 6 -8 7 -18 4 -24 -3 -5 -1 -6
5 -2 6 3 17 -1 25 -9 9 -8 25 -15 36 -15 14 0 19 -5 16 -19 -3 -15 1 -19 15
-16 10 2 26 -3 37 -10 10 -8 24 -15 32 -15 8 0 23 -7 33 -17 10 -9 18 -11 18
-6 0 7 12 8 33 4 23 -5 35 -3 45 8 11 14 11 14 6 -2 -5 -13 -2 -16 12 -10 13
5 16 3 11 -9 -4 -12 0 -15 18 -13 13 1 26 -3 28 -9 3 -7 26 -12 51 -13 28 -1
44 2 40 8 -3 6 -1 15 5 22 12 15 4 28 -29 45 -20 10 -26 22 -28 50 -2 35 -1
36 13 18 8 -11 15 -14 15 -8 0 7 5 12 11 12 5 0 7 -5 3 -12 -5 -7 -2 -9 7 -6
21 8 59 -9 59 -27 0 -8 3 -14 8 -14 24 4 42 -2 36 -12 -5 -8 1 -10 21 -7 18 4
33 0 46 -13 12 -12 19 -14 23 -6 2 7 5 4 5 -5 1 -16 12 -23 33 -19 5 0 7 -5 5
-12 -1 -7 6 -11 17 -9 11 2 15 -1 11 -7 -3 -6 -1 -11 5 -11 6 0 8 -4 5 -10 -3
-5 3 -10 15 -10 12 0 18 -4 15 -10 -3 -5 -2 -10 4 -10 6 0 28 -19 50 -41 26
-28 44 -39 53 -33 11 6 11 5 0 -8 -11 -14 -10 -16 13 -14 18 2 30 -3 38 -18
10 -17 22 -21 65 -21 28 0 52 4 52 10 0 7 3 7 8 0 11 -15 47 -42 40 -30 -4 6
2 17 14 24 16 10 19 10 12 -1 -6 -10 -4 -10 9 1 14 11 17 11 17 0 0 -11 2 -11
9 1 6 8 7 18 4 24 -3 5 -1 6 5 2 6 -4 8 -14 5 -24 -6 -15 -5 -15 10 -3 14 11
17 11 17 0 0 -11 2 -11 10 1 8 13 11 11 16 -7 4 -13 10 -20 15 -18 4 3 12 -3
18 -12 6 -10 11 -15 11 -11 0 4 11 3 24 -2 15 -5 27 -5 34 2 9 9 10 6 7 -10
-3 -18 -1 -21 14 -13 13 7 20 5 29 -9 7 -12 18 -17 33 -13 14 4 20 2 16 -4 -4
-6 0 -19 8 -29 15 -18 15 -18 9 1 -5 18 -4 18 6 3 6 -9 16 -16 23 -14 6 1 9 1
5 -1 -5 -3 -8 -12 -8 -21 0 -13 -2 -14 -9 -4 -4 8 -14 13 -22 12 -29 -5 -38 0
-32 17 5 12 2 15 -10 10 -8 -3 -21 1 -27 8 -7 8 -16 12 -21 9 -5 -3 -9 0 -9 6
0 6 -5 8 -11 5 -5 -4 -19 1 -29 10 -11 10 -26 15 -35 12 -8 -4 -15 -1 -15 5 0
7 -4 7 -13 -1 -10 -8 -19 -6 -35 10 -13 12 -22 15 -22 7 0 -9 -3 -9 -11 -1 -8
8 -20 8 -35 3 -16 -6 -24 -6 -24 1 0 6 -7 6 -19 -1 -11 -5 -22 -7 -25 -2 -8
13 -53 6 -70 -11 -9 -9 -24 -13 -33 -10 -11 4 -14 3 -9 -5 8 -13 6 -14 -36
-16 -15 -1 -37 -11 -49 -21 -12 -11 -19 -14 -15 -8 5 9 2 11 -8 7 -8 -3 -18
-13 -21 -22 -4 -14 -17 -17 -67 -16 -35 1 -68 2 -74 3 -5 0 -10 19 -11 40 -1
30 4 41 16 43 12 2 5 14 -27 45 -28 27 -41 47 -36 55 4 7 4 10 -1 6 -4 -4 -20
-1 -36 7 -15 8 -34 12 -42 9 -8 -3 -17 2 -20 10 -4 9 -15 13 -27 11 -11 -2
-20 1 -20 6 0 6 -6 7 -12 2 -23 -14 -38 -12 -52 8 -8 12 -19 17 -30 13 -11 -4
-16 -1 -16 10 0 9 -8 16 -20 16 -11 0 -20 5 -20 11 0 6 -9 8 -22 3 -21 -6 -22
-5 -8 11 8 11 10 16 4 12 -7 -4 -15 0 -18 8 -4 13 -10 14 -26 5 -16 -9 -18 -8
-14 5 5 11 -3 17 -27 22 -19 4 -38 6 -42 5 -5 -1 -5 3 -1 9 5 9 2 10 -9 6 -9
-3 -18 -1 -21 6 -2 7 -5 7 -5 2 -1 -7 -16 -9 -37 -7 -26 3 -35 1 -30 -7 4 -6
3 -11 -3 -11 -18 0 0 -29 21 -36 13 -4 16 -9 10 -13 -7 -4 0 -14 18 -25 17 -9
30 -21 30 -27 0 -5 5 -9 11 -9 5 0 7 5 4 10 -11 18 4 11 26 -12 12 -13 19 -16
15 -8 -4 8 0 6 8 -4 9 -11 16 -16 16 -10 0 5 7 1 14 -9 8 -10 18 -17 22 -16
21 4 35 -2 29 -11 -3 -6 4 -10 17 -10 18 0 20 -2 8 -10 -13 -8 -13 -10 2 -10
9 0 22 -8 27 -17 6 -10 11 -14 11 -10 0 16 31 -23 33 -41 0 -11 7 -19 15 -18
22 2 23 -32 1 -39 -10 -4 -23 -4 -28 0 -6 3 -8 -4 -6 -15 2 -13 -1 -20 -11
-20 -8 0 -14 -7 -14 -16 0 -8 -4 -12 -10 -9 -5 3 -10 1 -10 -5 0 -6 -5 -8 -12
-4 -8 5 -8 2 1 -10 8 -9 10 -16 5 -15 -24 4 -36 -2 -30 -17 3 -8 2 -12 -4 -9
-6 3 -10 2 -10 -3 0 -5 -18 -8 -40 -8 -22 1 -40 -2 -40 -7 0 -4 -4 -5 -10 -2
-5 3 -10 1 -10 -4 0 -6 -3 -10 -7 -10 -21 3 -56 -2 -50 -7 8 -8 -16 -33 -25
-27 -5 2 -8 -1 -8 -7 0 -6 -4 -8 -10 -5 -5 3 -10 -1 -10 -10 0 -10 5 -14 13
-10 6 4 5 1 -3 -7 -21 -18 -12 -157 9 -144 5 3 8 -2 7 -12 -1 -19 39 -64 48
-55 3 4 6 1 6 -5 0 -7 12 -12 26 -12 17 0 23 -4 18 -12 -5 -8 0 -7 11 2 11 9
16 10 11 3 -4 -7 -3 -13 1 -13 5 0 9 -9 10 -20 1 -11 -2 -18 -6 -16 -10 6 -8
-25 3 -42 4 -7 2 -12 -6 -12 -8 0 -9 -3 -2 -8 11 -8 11 -62 0 -80 -3 -6 -2
-13 4 -17 5 -3 10 -11 10 -16 0 -6 -4 -8 -9 -5 -5 4 -7 -3 -4 -13 3 -10 -2
-30 -11 -42 -20 -31 -21 -40 -5 -50 10 -6 6 -11 -14 -18 -24 -9 -26 -14 -17
-30 12 -24 13 -42 1 -22 -7 11 -12 9 -22 -10 -7 -13 -13 -36 -13 -51 -1 -14
-5 -30 -10 -35 -5 -5 -6 -2 -1 6 5 9 4 12 -3 8 -5 -4 -9 -15 -7 -25 1 -9 -3
-23 -9 -31 -7 -10 -7 -13 0 -8 6 3 11 0 11 -8 0 -8 -4 -12 -9 -9 -9 6 -9 4
-13 -44 -1 -18 -7 -38 -14 -45 -6 -6 -11 -21 -11 -34 0 -13 -7 -26 -16 -30
-10 -4 -12 -8 -5 -13 8 -4 5 -13 -7 -28 -11 -12 -22 -19 -26 -15 -3 3 -6 1 -6
-6 0 -7 -4 -9 -10 -6 -5 3 -10 -1 -10 -10 0 -9 -4 -14 -9 -11 -14 9 -41 -4
-41 -20 0 -8 -6 -11 -15 -8 -9 4 -15 0 -15 -9 0 -8 -9 -14 -21 -13 -13 1 -27
-9 -36 -24 l-15 -25 22 25 22 25 -15 -25 c-8 -14 -23 -24 -32 -23 -12 1 -15
-4 -12 -18 3 -10 1 -17 -3 -14 -12 8 -40 -5 -40 -19 0 -6 -11 -16 -25 -23 -14
-6 -25 -7 -25 -3 0 4 -9 6 -19 3 -23 -6 -35 -53 -15 -53 8 0 14 -5 14 -11 0
-5 -4 -7 -10 -4 -5 3 -10 2 -10 -4 0 -5 5 -11 11 -13 15 -5 19 -316 4 -322 -5
-3 -4 -5 3 -5 7 -1 10 -5 7 -11 -3 -5 4 -10 15 -10 19 0 21 -4 16 -25 -4 -17
-2 -25 6 -25 9 0 8 -3 -2 -10 -13 -9 -7 -14 12 -11 4 0 5 -5 3 -12 -3 -6 4
-25 14 -41 17 -26 18 -30 3 -47 -13 -15 -16 -40 -14 -123 2 -83 -1 -105 -12
-109 -9 -4 -13 -15 -10 -30 3 -19 -1 -26 -17 -30 -15 -4 -20 -12 -17 -24 6
-24 -44 -119 -61 -115 -7 1 -18 -11 -24 -28 -8 -21 -16 -29 -26 -25 -9 3 -12
3 -9 -1 4 -3 -2 -14 -14 -24 -18 -14 -21 -29 -22 -91 -1 -41 2 -82 6 -91 6
-13 5 -18 -4 -18 -23 0 -44 -35 -43 -70 1 -43 -12 -73 -28 -63 -7 4 -7 0 2
-10 7 -9 10 -17 5 -17 -5 0 -7 -42 -4 -94 3 -53 1 -94 -4 -93 -13 3 -22 -41
-20 -100 0 -37 -3 -54 -14 -58 -9 -3 -12 -13 -9 -25 3 -11 0 -23 -5 -27 -7 -4
-8 -1 -4 8 4 8 1 6 -7 -3 -8 -10 -17 -15 -20 -11 -4 3 -4 -4 -2 -16 2 -12 0
-19 -6 -16 -5 4 -9 3 -10 -2 0 -4 -2 -23 -3 -40 -2 -18 0 -30 4 -28 14 9 22
-32 19 -98 -3 -56 -1 -63 19 -72 12 -5 22 -13 22 -18 0 -4 -6 -5 -12 -1 -10 6
-10 4 -3 -7 6 -8 10 -21 9 -29 -1 -8 -2 -24 -3 -35 -1 -16 -3 -17 -11 -5 -8
12 -10 12 -16 -3 -3 -9 -3 -24 0 -33 3 -8 2 -12 -4 -9 -6 3 -10 -1 -10 -9 0
-9 -5 -16 -10 -16 -6 0 -10 -8 -8 -17 2 -10 -2 -17 -9 -16 -8 2 -11 -10 -10
-36 2 -29 11 -46 36 -70 18 -17 37 -31 42 -31 4 0 6 -7 3 -15 -4 -8 -1 -15 6
-15 6 0 8 -4 5 -10 -3 -5 -1 -10 4 -10 21 0 11 -33 -16 -56 -18 -15 -31 -20
-38 -14 -7 6 -16 5 -23 -2 -9 -9 -12 -9 -12 0 0 10 -5 10 -20 2 -13 -7 -20 -7
-20 -1 0 7 -8 7 -23 2 -18 -7 -24 -6 -24 4 0 8 5 11 11 8 6 -3 7 -2 3 3 -5 5
-16 9 -25 9 -9 0 -17 6 -17 13 0 8 -8 20 -18 27 -18 13 -18 14 0 27 10 7 18
24 18 38 0 14 4 31 9 38 5 7 4 12 -4 12 -6 0 -10 6 -8 12 3 7 -5 21 -16 31
-12 10 -14 16 -6 12 8 -4 4 3 -10 14 -14 11 -20 21 -14 21 12 0 12 49 -1 69
-6 10 -4 12 4 7 8 -6 11 -2 9 10 -2 11 2 18 8 17 7 -1 10 10 9 29 -4 39 4 60
18 51 5 -3 7 -2 4 3 -3 6 -2 16 3 24 5 9 5 19 -2 27 -8 10 -7 13 3 13 9 0 10
3 4 8 -11 8 -16 54 -5 47 4 -2 14 5 23 16 10 11 22 17 27 14 5 -3 7 8 5 25 -2
16 1 33 7 36 7 5 8 2 3 -6 -5 -8 -4 -11 3 -6 6 4 8 14 5 23 -4 11 -2 14 5 9 8
-5 8 1 1 24 -6 16 -15 27 -20 24 -5 -3 -9 0 -9 5 0 6 -11 11 -25 11 -14 0 -24
3 -24 8 1 4 0 9 -1 12 -7 19 -7 39 1 34 5 -3 10 0 10 5 1 6 2 16 3 22 0 6 10
16 21 22 19 11 27 27 28 54 0 7 7 15 14 17 10 4 11 11 5 23 -5 10 -7 24 -5 31
6 17 -5 15 -24 -3 -8 -9 -12 -23 -9 -31 4 -11 2 -15 -8 -11 -9 4 -19 -5 -26
-24 -7 -16 -17 -26 -23 -22 -6 3 -7 1 -3 -6 4 -6 2 -18 -4 -26 -6 -8 -9 -19
-5 -25 3 -5 -1 -13 -10 -16 -11 -5 -14 -15 -11 -35 2 -16 0 -29 -5 -29 -6 0
-7 -4 -4 -10 3 -5 1 -10 -4 -10 -6 0 -11 -7 -11 -15 0 -7 -7 -18 -16 -23 -9
-5 -17 -13 -17 -18 -1 -5 -6 -8 -10 -6 -4 1 -10 -5 -13 -13 -5 -13 -9 -13 -22
-3 -13 11 -14 10 -4 -8 6 -12 8 -24 5 -28 -9 -8 -8 -120 1 -135 4 -6 2 -11 -4
-11 -6 0 -8 -5 -5 -10 4 -6 10 -8 15 -5 4 3 10 -4 13 -15 3 -11 1 -20 -5 -20
-5 0 -7 -4 -3 -9 3 -5 0 -15 -7 -23 -15 -15 -19 -58 -6 -58 5 0 6 -5 3 -11
-10 -15 -12 -109 -3 -109 4 0 5 -7 1 -16 -3 -9 -1 -19 4 -23 15 -9 25 -61 13
-61 -6 0 -8 -5 -5 -10 4 -6 10 -8 14 -6 4 3 8 -1 8 -9 0 -8 -4 -12 -9 -9 -4 3
-8 0 -8 -7 0 -6 8 -9 18 -7 15 4 17 -3 18 -51 1 -31 6 -57 13 -59 6 -2 11 -17
11 -34 0 -24 3 -28 13 -19 11 8 13 7 12 -7 0 -9 -4 -23 -9 -30 -4 -6 -3 -12 2
-12 6 0 8 -9 5 -20 -3 -12 0 -20 6 -20 7 0 9 -4 6 -10 -3 -5 -2 -10 4 -10 5 0
8 -9 6 -20 -2 -11 2 -20 8 -20 8 0 8 -3 -1 -9 -16 -10 -15 -21 4 -42 8 -9 11
-19 7 -22 -3 -4 -1 -7 4 -7 6 0 10 -8 8 -17 -1 -10 7 -23 19 -30 18 -10 18
-12 4 -13 -21 0 -22 -9 -3 -34 12 -16 12 -22 0 -46 -11 -22 -11 -27 0 -27 8 0
11 7 8 16 -4 11 -1 10 9 -3 9 -11 14 -34 12 -53 -2 -23 1 -31 8 -27 7 5 8 2 2
-7 -14 -22 -13 -39 1 -39 10 0 13 -16 12 -60 -1 -33 2 -60 6 -60 5 0 6 -4 2
-9 -10 -17 -13 -71 -4 -77 5 -3 6 -10 3 -16 -4 -6 -1 -16 7 -22 8 -6 14 -18
14 -26 0 -8 5 -14 11 -13 6 1 11 -11 11 -28 0 -16 -6 -29 -12 -29 -7 0 -12
-10 -11 -23 1 -12 -3 -25 -9 -29 -6 -5 -4 -8 4 -8 9 0 1 -12 -18 -29 -27 -24
-29 -30 -15 -35 11 -4 15 -14 11 -31 -2 -14 0 -28 5 -31 5 -3 4 -12 -3 -20 -9
-11 -9 -14 0 -14 7 0 9 -5 6 -11 -4 -5 1 -19 10 -29 11 -12 13 -20 5 -25 -5
-3 -7 -11 -4 -17 11 -18 10 -68 -1 -68 -6 0 -6 -3 0 -8 6 -4 10 -14 10 -22 -1
-8 4 -21 9 -29 6 -8 11 -52 12 -98 1 -61 5 -87 15 -94 8 -5 11 -9 8 -9 -3 0
-3 -20 1 -45 4 -25 4 -45 0 -45 -10 0 1 -63 15 -80 23 -28 29 -44 14 -35 -12
7 -12 6 -1 -7 10 -12 10 -18 1 -23 -8 -6 -7 -10 2 -16 12 -8 11 -11 -1 -19
-12 -8 -12 -10 -1 -10 11 0 11 -3 1 -15 -7 -9 -8 -15 -2 -15 6 0 9 -12 7 -26
-1 -16 2 -23 9 -21 19 7 15 -135 -4 -158 -8 -11 -10 -16 -3 -12 6 4 15 3 18
-3 4 -6 1 -9 -7 -8 -7 2 -12 -3 -10 -10 2 -10 -4 -11 -19 -7 -19 6 -21 4 -17
-19 3 -15 1 -26 -6 -26 -6 0 -4 -5 4 -10 11 -7 11 -10 2 -10 -9 0 -10 -5 -4
-18 5 -9 7 -22 5 -29 -2 -6 1 -15 8 -19 7 -4 9 -3 5 4 -3 6 -1 14 5 18 7 4 9
3 5 -4 -3 -6 -2 -13 4 -17 5 -3 10 -11 10 -16 0 -6 -6 -7 -12 -3 -10 6 -10 4
0 -8 9 -12 10 -18 2 -23 -7 -4 -4 -13 10 -25 14 -12 19 -26 16 -44 -3 -17 1
-29 12 -36 14 -8 14 -9 2 -10 -10 0 -11 -3 -4 -8 15 -9 24 -62 11 -62 -5 0 -1
-8 9 -17 13 -13 19 -31 19 -60 -1 -23 2 -40 6 -37 12 7 17 -20 13 -71 -5 -68
-6 -75 -14 -75 -4 0 -7 -79 -6 -175 0 -132 3 -175 12 -175 9 0 12 -18 10 -59
-1 -33 2 -58 6 -55 4 3 8 -1 8 -10 0 -8 6 -17 13 -19 9 -4 9 -6 0 -6 -10 -1
-10 -7 -1 -26 8 -19 14 -22 20 -13 8 14 9 12 11 -39 0 -16 7 -34 14 -41 7 -8
11 -18 7 -23 -3 -5 1 -12 9 -15 9 -3 14 -16 12 -30 -1 -13 2 -27 7 -30 4 -3 6
-9 3 -14 -3 -5 3 -13 12 -19 10 -6 14 -11 9 -11 -4 0 -1 -11 8 -25 9 -14 14
-30 11 -35 -3 -6 -2 -10 3 -10 5 0 8 -11 7 -25 -2 -14 1 -23 6 -19 7 4 14 -33
10 -58 0 -4 7 -4 16 -1 11 4 14 3 9 -5 -4 -7 -2 -12 4 -12 6 0 9 -4 5 -9 -3
-5 2 -17 11 -25 8 -9 13 -16 10 -16 -3 0 -1 -11 4 -25 6 -16 6 -25 -1 -25 -5
0 -4 -6 3 -14 7 -8 16 -12 20 -9 4 2 5 -3 2 -12 -4 -9 0 -23 8 -33 9 -9 14
-31 13 -48 -1 -25 2 -31 13 -26 10 3 13 1 8 -6 -3 -6 -2 -13 3 -17 7 -3 7 -15
1 -30 -6 -16 -5 -25 3 -29 9 -5 9 -7 -1 -12 -10 -5 -10 -9 -1 -20 9 -11 9 -14
0 -14 -7 0 -9 -5 -5 -11 3 -6 1 -15 -7 -19 -17 -11 -21 -40 -5 -40 22 0 42
-34 40 -68 -2 -22 3 -35 15 -42 13 -7 17 -20 16 -50 -2 -37 4 -45 29 -41 5 1
4 -5 -4 -13 -7 -10 -8 -16 -2 -16 6 0 9 -9 7 -20 -2 -11 1 -19 7 -17 5 1 12
-13 14 -32 2 -19 9 -40 14 -47 6 -6 10 -16 9 -20 -1 -5 -1 -24 0 -41 1 -24 6
-33 19 -34 10 0 12 -3 4 -6 -6 -2 -9 -9 -6 -15 4 -6 7 -31 7 -55 0 -33 5 -48
18 -56 11 -7 19 -18 19 -25 0 -7 5 -10 12 -6 6 4 8 3 4 -4 -3 -6 -1 -14 5 -18
8 -5 8 -8 -1 -14 -8 -5 -7 -12 5 -24 9 -9 14 -23 11 -31 -3 -10 0 -12 11 -8
11 4 14 2 9 -5 -4 -7 -3 -12 3 -12 5 0 8 -8 7 -17 -2 -10 3 -24 11 -31 7 -8
11 -18 8 -23 -4 -5 2 -9 12 -9 15 0 16 -2 3 -10 -10 -7 -11 -10 -2 -10 7 0 17
-11 24 -25 6 -13 16 -21 22 -18 6 4 5 0 -2 -9 -9 -11 -10 -18 -2 -23 6 -3 7
-11 4 -17 -5 -8 -1 -9 10 -5 14 5 17 3 12 -8 -3 -8 -2 -14 2 -14 22 4 30 -3
27 -21 -2 -11 0 -18 5 -15 5 3 13 -3 19 -12 6 -10 11 -15 11 -11 0 5 8 0 18
-10 11 -9 18 -19 16 -22 -1 -3 4 -11 12 -18 11 -10 14 -10 14 0 0 7 8 1 17
-12 9 -14 24 -30 32 -36 8 -7 11 -16 6 -24 -5 -9 -4 -11 3 -6 7 4 12 2 12 -3
0 -6 8 -11 17 -11 9 0 14 -3 10 -6 -3 -3 4 -17 15 -30 18 -19 24 -21 36 -11
12 9 16 9 19 0 3 -8 14 -11 29 -7 17 4 26 1 30 -10 3 -9 10 -13 15 -10 5 3 9
-2 9 -10 0 -12 11 -16 45 -16 37 0 43 -3 38 -17 -5 -12 -2 -15 10 -10 9 3 17
3 17 -2 0 -5 11 -7 25 -6 15 2 25 -2 25 -10 0 -8 9 -12 24 -11 25 3 81 -26 71
-36 -3 -3 3 -8 15 -11 11 -3 26 0 33 7 10 11 15 10 26 -1 7 -8 19 -12 27 -9 8
3 13 0 11 -6 -1 -9 24 -12 83 -13 67 0 86 3 92 15 5 11 7 9 7 -7 1 -13 6 -23
11 -23 6 0 10 -7 10 -15 0 -20 37 -39 43 -22 3 7 6 4 6 -6 1 -10 6 -15 11 -12
6 3 10 3 10 -2 0 -4 11 -8 25 -8 18 0 25 5 25 20 0 11 4 16 8 10 4 -5 39 -10
77 -10 52 0 69 -4 67 -13 -1 -8 2 -11 7 -8 5 4 12 0 14 -6 4 -10 6 -10 6 -1 1
7 8 10 16 7 8 -4 12 -10 9 -15 -3 -5 20 -9 50 -9 47 0 60 4 78 25 11 13 25 22
30 19 4 -3 8 3 8 13 0 15 2 16 10 3 9 -13 10 -13 10 0 0 8 11 20 25 27 14 6
23 7 19 2 -10 -16 8 -9 23 9 8 9 11 11 7 3 -5 -10 -3 -12 7 -5 8 5 39 9 69 10
85 2 88 3 95 24 4 11 11 18 16 14 6 -3 13 4 16 16 4 15 8 18 13 10 5 -9 10 -6
15 9 3 12 10 19 15 16 5 -3 25 11 44 31 20 21 36 34 36 30 0 -4 10 -1 23 6 12
7 27 11 32 9 6 -1 7 1 3 5 -13 13 25 34 40 21 7 -5 12 -6 11 -1 -4 23 3 32 26
32 14 0 25 -4 25 -9 0 -15 57 -10 70 6 6 8 8 20 4 27 -4 7 -4 10 0 6 4 -3 16
2 27 13 10 10 25 16 34 13 10 -4 15 -2 13 7 -2 11 12 14 60 14 43 0 62 4 62
13 0 8 15 12 44 12 27 0 46 5 49 13 3 8 18 12 36 11 17 -1 29 3 28 9 -1 6 12
11 28 12 17 0 36 5 44 9 10 6 12 5 7 -2 -9 -16 7 -15 22 0 7 7 12 8 12 3 0 -5
7 0 15 11 8 11 14 14 15 6 0 -10 5 -10 21 -1 16 8 20 8 14 -1 -5 -9 -3 -9 11
-2 11 5 25 7 32 5 6 -3 12 2 12 11 0 16 7 18 62 18 15 1 25 4 23 9 -3 4 -1 10
5 14 5 3 10 0 10 -7 0 -9 3 -10 8 -2 4 6 17 14 30 18 12 4 22 11 22 16 0 10
46 26 82 29 17 1 22 41 6 41 -5 0 -3 10 3 22 8 14 14 18 17 10 2 -6 8 -10 12
-7 5 3 12 0 16 -6 4 -8 3 -9 -4 -5 -7 4 -12 2 -12 -3 0 -14 47 -14 55 -1 5 8
12 7 23 -2 10 -7 14 -8 10 -4 -4 5 -3 15 3 23 10 11 15 11 27 1 13 -10 14 -10
8 -1 -5 9 1 13 21 13 16 0 33 4 39 10 5 5 22 11 36 12 15 1 25 5 22 9 -7 12
23 18 35 6 8 -8 11 -8 11 2 0 7 4 10 9 6 5 -3 17 3 27 12 10 10 19 17 21 16
10 -8 23 -1 17 9 -4 6 -3 8 4 4 6 -3 14 -1 18 5 4 8 9 7 15 -2 8 -12 11 -12
18 1 5 8 8 17 5 21 -2 4 1 11 7 15 8 4 9 3 5 -4 -10 -16 2 -15 19 2 8 7 11 17
7 21 -4 4 0 5 8 4 8 -2 29 11 46 28 17 18 34 30 37 26 4 -3 7 0 7 7 0 7 3 10
7 7 3 -4 12 1 20 11 10 11 12 12 8 2 -4 -8 5 -3 18 12 14 15 28 24 33 20 4 -4
4 -1 0 6 -4 7 -1 15 8 18 9 3 13 10 10 15 -8 13 10 11 25 -3 10 -11 11 -10 6
5 -6 13 -2 17 14 17 12 0 20 4 19 9 -2 5 1 9 5 9 5 1 19 13 33 29 13 15 24 24
24 18 0 -5 5 -2 11 8 6 9 14 15 20 12 5 -4 6 2 2 11 -4 11 -3 15 4 11 6 -4 30
11 52 34 23 22 50 41 61 42 10 1 17 3 15 5 -2 2 4 12 13 21 13 13 22 15 36 8
14 -7 17 -6 11 4 -6 9 -3 11 9 6 12 -5 16 -2 14 10 -2 12 4 17 22 18 14 0 29
6 33 13 4 6 15 12 22 12 8 0 15 7 15 15 0 8 6 12 14 9 7 -3 21 2 30 11 9 9 16
13 16 8 1 -4 7 3 15 17 9 15 15 19 15 10 0 -8 8 -1 17 15 10 17 16 34 15 39
-2 5 4 6 13 3 10 -5 15 0 15 13 0 13 6 18 20 15 11 -2 19 1 17 8 -1 7 4 11 12
9 12 -3 12 -1 1 15 -8 10 -11 15 -6 11 11 -9 39 19 32 31 -3 5 1 11 9 15 8 3
15 15 15 26 0 12 5 18 10 15 6 -3 10 3 10 13 0 11 7 22 15 26 8 3 12 12 9 21
-4 9 1 18 12 22 34 13 43 27 25 40 -14 10 -13 11 6 7 18 -5 21 -2 16 14 -3 14
1 22 16 27 12 3 19 10 17 14 -7 10 29 63 37 55 3 -4 4 6 1 21 -3 20 0 28 14
31 10 3 19 15 19 26 1 12 8 25 15 29 7 5 9 9 3 9 -5 0 -3 5 5 10 12 8 12 10 1
10 -11 0 -11 3 0 18 7 9 9 14 5 10 -5 -4 -15 0 -21 9 -11 15 -10 20 8 35 14
13 16 18 6 18 -9 1 -6 8 9 20 13 11 21 24 18 29 -3 5 1 12 10 15 8 3 12 10 9
16 -3 5 -2 10 4 10 5 0 8 9 6 20 -2 11 0 18 4 15 14 -8 20 32 7 46 -8 9 -8 10
3 4 11 -6 13 -4 8 8 -4 10 -2 16 6 14 7 -1 11 4 9 11 -1 6 3 12 9 12 5 0 7 5
4 10 -3 6 0 10 8 10 8 0 17 7 21 15 3 8 1 15 -3 15 -5 0 -11 -6 -14 -12 -3 -7
-4 -3 -4 9 1 12 4 20 8 17 4 -2 9 12 11 32 3 25 -1 38 -11 44 -10 6 -11 10 -3
10 6 0 12 9 12 20 0 11 5 20 11 20 6 0 9 7 5 15 -3 8 -2 15 2 15 5 0 7 13 6
29 -1 17 4 32 11 35 9 3 12 16 10 36 -3 20 1 33 9 36 8 3 13 13 11 22 -1 9 3
23 9 31 8 12 8 13 -2 7 -9 -5 -7 4 5 30 10 22 18 51 17 67 0 15 4 27 11 27 8
0 12 18 11 55 -1 46 1 55 16 55 16 0 18 10 18 70 0 56 -3 70 -15 70 -16 0 -17
5 -17 55 0 17 -5 33 -12 37 -15 10 -17 270 -2 280 12 8 18 430 5 423 -11 -7
-17 17 -14 53 1 17 -1 29 -6 26 -5 -3 -10 0 -10 5 -3 21 -4 26 -12 39 -5 7 -3
12 4 12 7 0 5 8 -7 22 -13 14 -14 19 -4 14 13 -7 13 -6 0 6 -8 7 -15 22 -14
33 0 11 -8 28 -18 38 -10 10 -16 22 -13 28 4 5 1 9 -4 9 -6 0 -11 20 -11 44 0
40 -2 44 -20 41 -19 -4 -20 0 -16 55 2 41 0 60 -9 64 -8 3 -12 27 -13 66 0 35
-5 66 -11 70 -6 3 -12 29 -13 58 -1 28 -6 48 -10 46 -7 -5 -12 10 -9 28 1 8
-15 12 -31 9 -5 0 -8 3 -8 9 0 5 4 10 9 10 5 0 4 11 -2 25 -7 14 -18 23 -25
20 -7 -3 -10 0 -7 5 3 6 2 10 -3 10 -5 0 -14 12 -20 26 -7 14 -8 23 -2 19 19
-12 10 10 -10 25 -14 10 -16 17 -9 26 7 9 6 15 -3 21 -19 12 -51 73 -38 73 7
0 6 5 -2 14 -7 8 -16 12 -20 9 -4 -2 -5 3 -2 11 3 9 1 16 -6 16 -6 0 -9 4 -5
9 3 6 -10 9 -30 8 -23 -1 -34 -6 -31 -14 3 -7 2 -14 -2 -17 -4 -2 -9 6 -10 19
-2 28 -31 67 -44 59 -4 -3 -8 -1 -8 4 0 13 -36 52 -43 46 -3 -3 -11 4 -17 16
-10 18 -10 21 2 14 11 -6 11 -5 -1 9 -7 9 -18 14 -24 10 -6 -3 -7 -1 -3 5 4 7
2 12 -5 12 -7 0 -9 3 -6 7 4 3 0 11 -9 17 -8 6 -16 18 -17 26 -2 8 -7 21 -11
29 -7 10 -5 12 5 7 8 -4 5 0 -6 9 -18 14 -21 14 -31 0 -6 -8 -23 -14 -38 -13
-24 2 -30 10 -27 31 0 4 -5 7 -11 7 -9 0 -8 4 2 10 12 8 10 10 -8 10 -13 0
-20 4 -17 10 3 6 2 10 -3 10 -5 0 -8 10 -7 23 1 12 -3 25 -9 30 -8 5 -6 10 4
17 13 8 12 10 -4 10 -20 0 -20 0 0 16 10 8 13 13 7 9 -9 -4 -11 -1 -7 9 3 9 9
14 13 12 3 -2 12 2 18 10 8 8 9 15 3 19 -6 4 -8 11 -5 16 4 5 2 9 -2 9 -5 0
-14 10 -19 23 -6 12 -9 16 -7 10 1 -7 -2 -13 -7 -13 -6 0 -10 7 -10 15 0 8 -5
14 -12 13 -7 -2 -12 11 -12 35 -1 20 2 37 7 37 4 0 7 5 7 11 0 5 -4 8 -8 5 -4
-3 -8 10 -8 27 1 25 -3 32 -19 32 -11 0 -26 -4 -32 -9 -8 -5 -13 -4 -13 3 0 7
-4 10 -8 7 -4 -3 -8 7 -8 21 1 15 -5 28 -13 31 -9 3 -12 0 -9 -9 4 -9 -1 -15
-12 -15 -11 0 -16 5 -12 15 3 9 1 12 -6 7 -8 -5 -12 0 -12 13 0 12 -6 21 -12
21 -9 0 -8 4 2 10 13 8 12 10 -3 10 -25 0 -47 24 -49 54 -1 13 -6 22 -10 20
-8 -5 -10 -1 -11 39 -1 12 -7 28 -15 36 -8 8 -12 25 -9 37 2 13 0 21 -4 18 -5
-3 -9 2 -9 11 0 9 -4 14 -9 10 -5 -3 -12 4 -16 15 -3 11 -11 20 -17 20 -7 0
-7 -4 0 -13 11 -13 11 -42 -1 -53 -3 -3 -13 1 -22 10 -16 15 -9 21 18 17 4 0
7 3 7 7 0 5 -3 12 -7 16 -5 4 -9 12 -9 17 -1 5 -3 10 -4 12 -1 1 -4 29 -5 61
-2 39 -8 63 -17 70 -11 8 -13 18 -7 33 6 17 3 26 -9 35 -12 9 -18 26 -18 52 1
22 -4 44 -10 50 -6 6 -11 31 -12 55 -1 25 -7 48 -12 51 -6 4 -11 32 -12 63 -1
31 -6 57 -10 57 -4 0 -8 8 -8 18 0 14 -2 15 -10 2 -8 -13 -10 -13 -10 2 0 12
-6 16 -20 13 -12 -2 -23 2 -26 10 -3 7 -11 12 -17 9 -19 -7 -38 31 -24 48 7 7
11 11 10 9 -2 -2 7 -13 20 -23 19 -17 22 -18 25 -4 2 9 7 16 11 16 4 0 7 9 7
20 0 11 -4 20 -8 20 -4 0 -3 11 2 25 7 18 6 25 -3 25 -8 0 -7 4 3 10 13 8 12
10 -1 15 -9 3 -16 11 -17 18 -1 7 -3 26 -5 42 -6 45 -6 47 -16 40 -6 -3 -8 14
-6 40 1 25 -1 45 -6 45 -5 0 -5 7 -2 17 4 11 3 14 -6 9 -8 -5 -10 0 -7 18 3
18 1 23 -10 19 -8 -3 -14 1 -14 10 0 10 -7 15 -20 12 -11 -2 -19 1 -17 8 1 7
-4 11 -10 10 -7 -2 -13 2 -13 8 0 8 -4 8 -14 0 -11 -9 -15 -9 -18 0 -3 8 -9 7
-20 -4 -8 -9 -18 -13 -22 -10 -3 4 -6 0 -6 -8 0 -11 -2 -11 -8 -1 -6 9 -13 7
-29 -7 -11 -11 -23 -18 -25 -16 -2 2 -4 -5 -5 -16 -1 -11 2 -17 6 -14 5 2 11
-4 14 -15 3 -11 1 -20 -5 -20 -5 0 -7 -4 -3 -9 3 -6 -3 -10 -12 -10 -10 -1
-25 -1 -33 -1 -8 -1 -41 1 -72 2 -32 2 -60 -1 -62 -7 -3 -5 -5 -2 -5 8 -1 9
-8 17 -17 17 -8 0 -13 4 -9 9 3 6 -4 15 -15 21 -12 6 -19 17 -17 25 3 7 -2 23
-11 36 l-16 24 22 -19 c12 -11 22 -15 23 -10 0 5 4 -1 10 -14 5 -13 13 -21 18
-17 6 3 7 13 4 22 -4 10 -2 14 4 10 14 -9 24 18 16 40 -4 11 -3 14 5 9 8 -5
10 -2 6 8 -3 9 -11 14 -17 13 -6 -1 -11 16 -12 39 -1 27 2 41 11 41 7 0 13 -7
13 -16 1 -58 6 -65 39 -66 26 -1 34 4 39 23 3 12 3 26 0 29 -4 3 -2 14 3 24 7
12 7 20 0 24 -6 4 -8 10 -5 15 3 5 -2 15 -11 24 -8 9 -12 21 -8 28 5 7 2 9 -9
5 -9 -3 -18 0 -21 9 -4 10 -2 13 7 8 6 -4 3 2 -7 14 -11 12 -15 22 -10 22 5 0
10 9 10 20 0 11 -4 20 -9 20 -5 0 -5 6 1 13 7 8 7 18 2 27 -5 8 -5 21 0 30 6
12 3 20 -13 30 -12 8 -25 13 -29 12 -4 -1 -5 4 -2 12 3 7 -2 16 -10 19 -10 4
-16 19 -16 42 0 36 -8 41 -60 36 -11 -1 -16 9 -18 31 -2 18 -9 36 -18 41 -8 4
-12 13 -9 18 9 14 -27 89 -42 89 -7 0 -13 5 -13 11 0 5 5 7 12 3 6 -4 8 -3 5
3 -3 5 -16 9 -29 8 -25 -2 -68 36 -68 60 0 9 -4 14 -9 10 -6 -3 -8 3 -6 14 2
10 -3 27 -10 38 -8 10 -15 26 -15 36 0 10 -4 15 -10 12 -5 -3 -10 -1 -10 5 0
17 -26 40 -45 40 -10 0 -14 5 -9 13 6 10 4 10 -7 0 -7 -7 -18 -13 -23 -13 -6
0 -4 5 4 10 13 8 12 10 -4 10 -11 0 -17 3 -13 6 3 3 -4 17 -16 30 -43 46 -49
54 -36 54 7 0 3 8 -7 18 -11 9 -20 26 -20 37 0 13 -6 20 -16 19 -10 -1 -16 3
-15 10 1 6 -4 10 -10 9 -7 -2 -13 0 -12 5 2 15 -14 52 -22 52 -5 0 -9 7 -9 16
0 8 -3 13 -7 11 -5 -3 -13 1 -20 8 -10 11 -10 15 0 18 7 3 2 4 -10 4 -12 -1
-19 -5 -17 -9 3 -4 0 -8 -7 -8 -6 0 -9 -8 -6 -20 3 -11 1 -18 -4 -14 -5 3 -9
0 -9 -6 0 -6 -4 -9 -9 -5 -5 3 -12 1 -15 -4 -4 -5 -2 -12 3 -16 15 -9 -27 -47
-55 -50 -13 -1 -21 1 -19 6 3 4 2 9 -2 12 -5 2 -3 3 3 1 7 -1 10 5 7 17 -4 13
0 19 12 19 15 0 16 2 4 17 -12 14 -12 16 1 9 8 -4 4 2 -9 13 -13 12 -18 21
-11 21 9 0 10 3 1 13 -6 8 -8 17 -4 20 3 4 -1 7 -11 7 -9 0 -14 5 -11 10 3 6
2 10 -2 10 -5 0 -26 15 -47 33 -37 32 -38 34 -16 40 12 3 19 3 16 0 -3 -4 -1
-12 5 -20 9 -10 15 -10 25 -2 11 9 18 4 31 -20 10 -17 24 -31 31 -31 7 0 10
-4 7 -10 -3 -5 1 -10 10 -10 9 0 13 5 10 10 -3 6 0 10 8 10 11 0 15 11 14 38
-2 32 -5 37 -24 36 -16 -1 -23 4 -23 17 0 11 -5 18 -12 16 -8 -1 -12 9 -12 25
1 15 -3 25 -7 22 -8 -5 -13 10 -10 29 0 4 -6 7 -14 7 -8 0 -14 3 -14 8 4 21
-2 65 -7 59 -11 -10 -33 17 -23 29 6 7 2 19 -11 34 -16 19 -21 20 -26 7 -9
-23 -38 -32 -32 -9 3 10 -1 23 -9 30 -7 7 -13 10 -13 6 0 -4 -8 0 -17 8 -10 9
-27 14 -38 12 -11 -1 -23 2 -27 9 -12 19 -9 24 15 22 12 -1 31 2 42 8 11 5 17
6 13 2 -9 -9 19 -38 39 -41 9 -2 12 3 9 11 -3 8 0 15 6 17 6 2 4 10 -6 20 -9
9 -16 23 -16 31 0 8 -6 20 -14 27 -8 6 -12 18 -9 26 3 9 -1 14 -12 14 -12 0
-15 5 -10 21 6 16 4 20 -6 13 -11 -6 -11 -4 0 10 8 9 10 16 5 15 -24 -4 -34 3
-34 25 0 16 -7 27 -21 31 -12 4 -18 10 -13 14 13 9 14 41 1 41 -6 0 -7 3 -4 7
4 3 -1 15 -10 26 -10 11 -12 17 -6 13 9 -5 11 -2 7 7 -8 21 -66 16 -87 -8 -10
-11 -15 -13 -11 -5 7 13 5 13 -9 2 -14 -12 -20 -11 -41 5 -14 10 -30 28 -37
40 -7 12 -15 21 -18 19 -3 -2 -12 2 -19 10 -10 11 -10 14 0 14 9 0 9 3 -2 10
-12 8 -9 10 13 10 16 0 26 -3 24 -7 -6 -10 19 -34 27 -26 3 4 6 -1 6 -10 0
-13 9 -17 40 -17 33 0 40 3 40 20 0 11 -6 20 -12 20 -9 0 -8 4 2 10 12 8 10
10 -8 10 -13 0 -21 4 -18 8 3 5 -6 15 -19 22 -13 7 -22 17 -19 22 3 4 -2 8
-10 8 -9 0 -16 7 -16 15 0 8 -5 15 -11 15 -5 0 -8 4 -4 9 3 5 -2 16 -10 24 -8
9 -15 21 -15 27 0 6 -4 8 -10 5 -5 -3 -10 1 -10 10 0 9 -5 13 -10 10 -6 -3
-13 1 -16 9 -3 9 -12 16 -20 16 -8 0 -14 5 -14 10 0 6 -9 10 -20 10 -11 0 -20
7 -20 16 0 8 -4 12 -10 9 -5 -3 -10 2 -10 11 0 10 -3 15 -6 11 -8 -8 -34 18
-34 33 0 6 -4 8 -10 5 -5 -3 -10 -1 -10 4 0 6 -3 10 -7 10 -21 -3 -33 3 -33
17 0 8 -3 13 -7 11 -11 -6 -53 39 -45 48 4 4 -2 5 -13 3 -12 -2 -19 2 -17 10
1 6 -1 11 -5 11 -5 -1 -15 -1 -23 0 -13 1 -13 2 0 11 13 8 12 10 -2 10 -10 0
-18 5 -18 11 0 5 -4 8 -8 5 -5 -3 -24 13 -42 34 -24 28 -36 36 -42 27 -6 -8
-10 -5 -14 10 -3 13 -12 19 -19 17 -7 -3 -23 4 -34 15 -11 11 -16 21 -10 23 5
2 -8 16 -28 32 -20 16 -33 24 -29 18 5 -8 2 -10 -9 -6 -8 4 -22 18 -30 33 -8
14 -14 20 -15 12 0 -7 -12 0 -29 18 -15 16 -31 27 -35 23 -4 -3 -4 1 0 11 6
17 -5 25 -43 32 -10 1 -17 8 -15 15 1 6 -1 9 -5 7 -11 -6 -74 29 -66 37 3 3
-4 6 -16 6 -12 0 -19 4 -16 10 3 6 -1 11 -9 11 -9 1 -22 2 -28 3 -7 0 -13 8
-13 16 0 8 -8 21 -17 28 -10 7 -18 22 -18 32 0 10 -9 22 -20 25 -11 3 -20 13
-20 21 0 8 -4 12 -10 9 -5 -3 -10 1 -10 10 0 9 -4 14 -9 10 -6 -3 -15 4 -21
15 -6 11 -15 18 -20 15 -5 -3 -7 4 -5 15 2 13 -1 20 -11 20 -8 0 -14 9 -14 21
0 11 -4 17 -10 14 -5 -3 -10 0 -10 7 0 7 -14 24 -30 37 -29 23 -42 49 -17 35
7 -4 8 -3 4 2 -5 5 -16 9 -25 9 -11 0 -17 8 -16 21 0 15 -6 21 -20 20 -15 -1
-20 4 -18 17 2 9 -2 17 -8 17 -6 0 -8 5 -5 10 4 6 1 9 -7 8 -8 -2 -13 6 -13
20 0 13 -9 30 -20 38 -13 10 -15 14 -4 14 12 0 12 2 -1 10 -11 7 -11 10 -2 10
7 0 10 5 7 10 -4 6 -155 10 -420 10 -265 0 -416 -4 -420 -10z m515 -81 c0 7 5
9 10 6 19 -12 10 -32 -12 -29 -13 1 -26 3 -30 3 -4 1 -5 8 -2 16 5 12 10 13
20 4 11 -9 14 -9 14 0z m100 -32 c0 -7 4 -6 10 3 8 12 10 10 10 -10 0 -14 4
-20 8 -15 4 6 13 11 20 13 9 1 10 -2 1 -16 -14 -23 -52 -23 -61 1 -4 9 -15 17
-23 17 -23 0 -10 15 14 17 12 1 21 -4 21 -10z m151 -62 c5 4 9 -1 9 -9 0 -21
-6 -20 -29 3 -13 13 -16 21 -8 24 7 2 13 -2 15 -10 2 -7 8 -11 13 -8z m49 -41
c0 -8 7 -17 15 -20 8 -4 15 -9 15 -13 0 -4 -7 -8 -15 -8 -8 0 -15 7 -15 15 0
8 -6 12 -13 9 -18 -7 -38 18 -25 31 13 13 38 4 38 -14z m61 -82 c6 -16 5 -20
-6 -16 -8 3 -11 12 -8 20 3 8 0 14 -6 14 -6 0 -11 -5 -11 -12 0 -6 -3 -9 -6
-5 -9 9 6 29 18 25 6 -2 15 -14 19 -26z m50 -54 c1 -4 2 -13 3 -20 0 -6 9 -12
20 -14 10 -1 25 -12 33 -23 8 -12 19 -19 24 -16 5 3 6 -1 3 -9 -3 -9 -9 -16
-13 -16 -12 0 -40 38 -33 46 4 3 0 5 -8 2 -16 -5 -43 17 -52 43 -4 9 -1 16 8
16 8 0 15 -4 15 -9z m109 -113 c0 -8 -4 -15 -9 -15 -13 0 -22 16 -14 24 11 11
23 6 23 -9z m27 -1 c-9 -9 19 -34 37 -34 9 0 16 -9 16 -21 0 -11 5 -17 10 -14
6 3 10 -1 10 -9 0 -21 -16 -21 -24 0 -3 8 -9 13 -13 11 -5 -3 -17 -1 -28 4
-18 7 -18 8 -2 8 10 1 15 6 12 11 -4 6 -10 8 -14 6 -4 -3 -13 -1 -21 4 -11 7
-11 11 -1 24 8 9 16 16 19 16 3 0 3 -3 -1 -6z m633 -509 c0 -8 -4 -15 -9 -15
-13 0 -22 16 -14 24 11 11 23 6 23 -9z m-795 -5 c3 -5 1 -10 -4 -10 -6 0 -11
5 -11 10 0 6 2 10 4 10 3 0 8 -4 11 -10z m2375 -2538 c0 -7 -4 -11 -9 -7 -5 3
-13 0 -17 -6 -5 -8 -9 -7 -15 2 -10 18 -5 25 20 25 12 0 21 -6 21 -14z m-50
-16 c0 -21 -27 -27 -42 -9 -11 15 -11 16 5 10 9 -3 17 -2 17 3 0 6 5 10 10 10
6 0 10 -6 10 -14z m552 -362 c-9 -16 -10 -14 -9 8 1 15 6 23 11 18 4 -4 4 -16
-2 -26z m134 -610 c-3 -8 0 -14 7 -14 9 0 8 -3 -1 -9 -11 -7 -11 -9 1 -14 8
-3 15 -17 15 -31 0 -21 -3 -23 -19 -13 -10 6 -15 15 -13 19 3 5 -2 11 -10 14
-9 3 -15 16 -14 29 1 13 6 21 10 19 4 -3 8 2 8 11 0 9 5 13 11 10 6 -4 8 -13
5 -21z m93 -176 c-5 -10 -12 -18 -15 -18 -3 0 -2 5 1 10 3 6 1 10 -4 10 -13 0
-10 22 4 32 15 11 25 -14 14 -34z m501 -941 c0 6 9 9 21 6 21 -6 21 -7 4 -19
-10 -8 -16 -16 -13 -20 4 -3 -2 -14 -13 -25 -20 -20 -64 -26 -74 -9 -3 6 0 10
7 10 9 0 9 3 -2 10 -9 6 -10 10 -3 10 7 0 10 9 8 21 -4 18 0 20 20 16 15 -2
25 0 25 7 0 6 5 4 10 -4 5 -8 10 -10 10 -3z m58 -40 c2 -12 -1 -15 -12 -11
-19 7 -22 38 -3 32 6 -3 13 -12 15 -21z m105 -90 c-4 -6 -1 -7 8 -1 36 22 78
3 56 -25 -10 -12 -9 -13 1 -7 9 5 15 1 19 -13 3 -12 10 -21 16 -21 7 0 7 -4
-1 -12 -18 -18 -15 -26 11 -23 18 2 22 -2 21 -19 -1 -11 -5 -30 -9 -40 -8 -18
-9 -18 -21 -1 -7 9 -18 14 -24 10 -6 -3 -10 -3 -9 2 4 22 -2 35 -15 30 -9 -4
-13 0 -12 11 2 9 -3 23 -11 30 -7 8 -11 17 -9 20 2 4 -2 13 -10 20 -8 7 -14 9
-14 5 0 -4 -5 0 -11 10 -6 10 -15 14 -22 10 -9 -5 -9 -3 0 8 14 17 46 22 36 6z
m144 -172 c0 -8 -4 -12 -9 -9 -4 3 -8 9 -8 15 0 5 4 9 8 9 5 0 9 -7 9 -15z
m83 -120 c7 -8 16 -12 21 -9 13 8 11 -10 -3 -25 -10 -11 -10 -13 0 -7 9 5 12
-5 12 -39 0 -28 -4 -44 -10 -40 -6 3 -7 -1 -4 -9 3 -9 10 -16 16 -16 5 0 6 -5
3 -10 -4 -6 -10 -8 -14 -6 -4 3 -8 -1 -8 -9 0 -8 4 -12 7 -10 4 3 8 -6 8 -20
0 -15 -5 -22 -12 -19 -6 3 -3 -1 7 -9 15 -13 16 -15 2 -21 -8 -3 -15 -11 -14
-18 0 -10 2 -10 6 0 2 6 9 10 13 7 5 -3 7 -11 4 -18 -2 -7 7 -19 20 -27 14 -7
23 -17 20 -22 -3 -4 5 -8 18 -9 13 0 17 -3 9 -6 -11 -5 -11 -7 0 -14 8 -5 9
-9 3 -9 -6 0 -9 -10 -7 -23 3 -16 0 -24 -10 -24 -9 0 -13 11 -12 33 1 18 -2
31 -6 29 -4 -3 -10 2 -13 11 -3 9 -11 12 -18 8 -8 -5 -9 -2 -5 10 4 10 3 15
-3 11 -6 -3 -10 0 -10 7 0 11 -2 10 -9 0 -7 -11 -10 -10 -15 3 -3 9 -3 21 0
26 3 5 0 8 -6 7 -7 -2 -14 5 -15 15 -2 9 3 17 10 17 14 0 15 17 1 39 -6 9 -5
12 0 8 6 -3 9 26 8 76 -2 104 -2 107 -11 106 -17 -3 -24 2 -18 11 9 14 21 12
35 -5z m-5174 -1167 c-1 -27 3 -48 9 -48 5 0 4 -4 -4 -9 -7 -5 -10 -14 -6 -21
5 -8 1 -11 -11 -8 -15 2 -18 11 -16 36 2 20 -1 32 -8 32 -7 0 -10 7 -6 15 3 8
-2 19 -12 24 -10 5 -18 19 -19 30 -1 12 2 19 8 16 5 -4 9 -2 9 4 0 6 13 3 29
-7 26 -14 29 -21 27 -64z"/>
<path d="M3082 10512 c-12 -12 -22 -17 -22 -11 0 6 -5 7 -12 2 -7 -4 -17 -8
-23 -8 -5 0 -9 -8 -9 -18 1 -9 -4 -17 -11 -17 -9 0 -12 -14 -11 -44 1 -25 -1
-43 -5 -40 -4 2 -10 -3 -13 -12 -11 -28 -6 -53 12 -63 16 -10 15 -10 -3 -11
-19 -1 -19 -1 -2 -11 9 -6 15 -14 12 -19 -3 -4 2 -11 11 -14 8 -3 12 -10 9
-16 -8 -13 20 -42 30 -32 5 4 5 2 2 -5 -4 -6 -4 -19 -1 -28 5 -13 8 -14 15 -3
6 9 9 6 10 -12 1 -14 1 -28 0 -32 0 -4 8 -5 19 -3 11 2 20 -2 20 -8 0 -17 40
-19 59 -4 12 10 13 9 7 -3 -4 -8 -1 -7 8 4 8 10 21 16 29 13 8 -3 20 0 26 6 8
8 9 5 7 -9 -3 -16 1 -20 17 -19 12 1 25 -3 29 -9 5 -7 8 -7 8 2 0 9 7 11 19 7
14 -4 20 1 25 20 4 15 11 23 17 19 8 -4 7 -9 -2 -15 -10 -6 -10 -9 -2 -9 16 0
26 17 13 25 -6 4 -7 11 -4 17 4 6 2 8 -3 5 -6 -4 -16 0 -23 8 -7 8 -16 13 -20
10 -4 -3 -7 3 -6 13 1 11 -5 16 -17 14 -23 -4 -59 27 -53 45 3 7 -1 13 -10 13
-8 0 -13 4 -10 9 3 4 0 16 -7 26 -13 16 -14 16 -30 0 -15 -14 -17 -15 -17 -1
0 9 -6 15 -12 14 -7 -2 -11 4 -10 12 2 8 0 12 -4 8 -15 -16 -33 13 -24 38 6
16 6 24 -1 24 -6 0 -7 6 -2 13 4 6 8 17 9 22 0 6 2 16 2 23 1 7 7 10 12 7 17
-11 11 14 -9 34 -10 10 -20 24 -23 32 -3 9 -10 7 -26 -9z"/>
<path d="M2483 9942 c-22 -3 -23 -8 -23 -84 0 -70 2 -79 16 -74 14 5 15 4 4
-9 -11 -13 -10 -14 5 -9 12 5 16 4 12 -3 -9 -14 11 -21 46 -17 15 1 27 -2 27
-8 0 -7 4 -7 13 -1 6 5 26 9 42 8 47 -3 88 51 60 79 -8 8 -15 21 -15 30 0 8
-9 18 -20 21 -11 3 -20 12 -21 18 0 7 -4 3 -9 -8 -7 -15 -9 -16 -9 -4 -1 12
-10 16 -33 15 -29 -1 -33 3 -38 29 -4 22 -8 26 -14 16 -5 -7 -11 -9 -15 -4 -3
4 -16 7 -28 5z"/>
<path d="M5735 8800 c3 -5 8 -10 11 -10 2 0 4 5 4 10 0 6 -5 10 -11 10 -5 0
-7 -4 -4 -10z"/>
<path d="M2602 8713 c-6 -3 -10 -9 -6 -14 3 -5 0 -9 -5 -9 -13 0 -10 -22 4
-32 6 -5 5 -8 -4 -8 -10 0 -11 -3 -2 -14 7 -8 21 -13 31 -11 11 2 23 -1 26 -7
4 -7 2 -8 -4 -4 -7 4 -12 3 -12 -2 0 -4 27 -8 60 -7 33 1 63 -2 67 -8 4 -6 1
-7 -7 -2 -8 5 -11 4 -7 -3 4 -5 18 -9 32 -7 14 1 25 -2 25 -7 0 -5 4 -7 9 -3
5 3 15 -1 23 -8 7 -8 19 -12 27 -9 8 3 11 0 7 -7 -4 -6 0 -11 11 -11 12 0 14
-3 6 -8 -9 -6 -4 -13 17 -26 17 -9 30 -21 30 -27 0 -5 10 -9 23 -9 18 0 19 -2
7 -11 -12 -9 -11 -10 7 -6 16 3 20 1 16 -10 -4 -10 0 -14 13 -11 11 2 18 -2
16 -9 -1 -7 5 -13 13 -13 14 0 20 -13 16 -34 -1 -5 5 -4 13 4 14 11 16 9 16
-10 0 -13 3 -20 6 -17 4 3 15 2 25 -3 12 -7 19 -6 22 3 3 7 6 5 6 -5 1 -11 9
-18 20 -18 15 0 19 7 18 39 0 22 -4 38 -9 35 -4 -3 -8 2 -8 10 0 9 -4 16 -10
16 -14 0 -70 60 -69 74 0 6 3 6 6 -2 2 -6 9 -10 14 -6 5 3 12 -2 15 -10 3 -9
10 -16 16 -16 5 0 6 5 2 11 -4 7 1 7 16 -1 16 -9 20 -9 15 -1 -5 8 2 10 22 5
l28 -7 -23 22 c-12 12 -19 28 -16 34 4 7 4 9 -1 5 -5 -5 -14 1 -22 12 -8 11
-21 20 -29 20 -8 0 -12 5 -9 10 3 6 -1 10 -10 10 -10 0 -13 5 -9 12 5 8 0 9
-15 5 -14 -3 -24 0 -28 9 -3 8 -10 14 -17 13 -25 -3 -36 2 -36 15 0 9 -7 12
-20 9 -12 -3 -20 0 -20 6 0 7 -4 9 -10 6 -6 -3 -7 1 -4 10 6 14 1 16 -27 13
-25 -3 -38 1 -51 16 -10 12 -17 17 -18 11 0 -6 -33 -8 -90 -5 -57 3 -90 1 -90
-5 0 -5 -5 -3 -10 5 -8 12 -10 12 -10 1 0 -9 -4 -10 -12 -4 -7 6 -19 8 -26 6z"/>
<path d="M2880 3926 c0 -2 7 -7 16 -10 8 -3 12 -2 9 4 -6 10 -25 14 -25 6z"/>
<path d="M5148 123 c7 -3 16 -2 19 1 4 3 -2 6 -13 5 -11 0 -14 -3 -6 -6z"/>
</g>
</svg>
